# Blender v2.90.1 OBJ File: ''
# www.blender.org
mtllib crate.mtl
o crate
v 0.850000 -0.850000 0.900000
v 0.850000 0.850000 0.900000
v -0.850000 0.850000 0.900000
v -0.850000 -0.850000 0.900000
v 0.900000 -0.850000 -0.850000
v 0.900000 0.850000 -0.850000
v 0.900000 0.850000 0.850000
v 0.900000 -0.850000 0.850000
v -0.850000 -0.850000 -0.900000
v -0.850000 0.850000 -0.900000
v 0.850000 0.850000 -0.900000
v 0.850000 -0.850000 -0.900000
v -0.900000 -0.850000 0.850000
v -0.900000 0.850000 0.850000
v -0.900000 0.850000 -0.850000
v -0.900000 -0.850000 -0.850000
v 0.850000 0.900000 0.850000
v 0.850000 0.900000 -0.850000
v -0.850000 0.900000 -0.850000
v -0.850000 0.900000 0.850000
v 0.850000 -0.900000 -0.850000
v 0.850000 -0.900000 0.850000
v -0.850000 -0.900000 0.850000
v -0.850000 -0.900000 -0.850000
v 1.000000 -1.000000 1.000000
v 0.850000 -0.850000 1.000000
v -0.850000 -0.850000 1.000000
v -1.000000 -1.000000 1.000000
v 1.000000 1.000000 1.000000
v 0.850000 0.850000 1.000000
v -1.000000 1.000000 1.000000
v -0.850000 0.850000 1.000000
v 1.000000 -1.000000 -1.000000
v 1.000000 -0.850000 -0.850000
v 1.000000 -0.850000 0.850000
v 1.000000 1.000000 -1.000000
v 1.000000 0.850000 -0.850000
v 1.000000 0.850000 0.850000
v -1.000000 -1.000000 -1.000000
v -0.850000 -0.850000 -1.000000
v 0.850000 -0.850000 -1.000000
v -1.000000 1.000000 -1.000000
v -0.850000 0.850000 -1.000000
v 0.850000 0.850000 -1.000000
v -1.000000 -0.850000 0.850000
v -1.000000 -0.850000 -0.850000
v -1.000000 0.850000 0.850000
v -1.000000 0.850000 -0.850000
v 0.850000 1.000000 0.850000
v -0.850000 1.000000 0.850000
v 0.850000 1.000000 -0.850000
v -0.850000 1.000000 -0.850000
v 0.850000 -1.000000 -0.850000
v -0.850000 -1.000000 -0.850000
v 0.850000 -1.000000 0.850000
v -0.850000 -1.000000 0.850000
vt 0.909052 0.452051
vt 0.554933 0.096596
vt 0.910657 0.096307
vt 0.447836 0.452354
vt 0.092412 0.098620
vt 0.447923 0.096815
vt 0.912065 0.456309
vt 0.556649 0.101350
vt 0.912771 0.100161
vt 0.441254 0.451786
vt 0.090493 0.100203
vt 0.442591 0.099666
vt 0.090444 0.562139
vt 0.445869 0.914608
vt 0.090994 0.917047
vt 0.444604 0.561297
vt 0.090158 0.916713
vt 0.088712 0.560848
vt 0.922199 0.084795
vt 0.510810 0.052321
vt 0.957889 0.049261
vt 0.919656 0.462706
vt 0.953175 0.496326
vt 0.541786 0.463852
vt 0.506096 0.499386
vt 0.544330 0.085941
vt 0.494927 0.049596
vt 0.081769 0.088017
vt 0.048126 0.054560
vt 0.492122 0.496414
vt 0.459409 0.085261
vt 0.045322 0.501379
vt 0.458479 0.462958
vt 0.080839 0.465714
vt 0.924298 0.088607
vt 0.512364 0.057138
vt 0.959938 0.052943
vt 0.922708 0.466949
vt 0.956350 0.500522
vt 0.544416 0.469052
vt 0.508776 0.504716
vt 0.546007 0.090710
vt 0.454008 0.088263
vt 0.046788 0.056411
vt 0.489309 0.053066
vt 0.451757 0.462325
vt 0.484959 0.495579
vt 0.077739 0.463726
vt 0.042438 0.498923
vt 0.079990 0.089664
vt 0.079548 0.928601
vt 0.490156 0.958510
vt 0.044158 0.964266
vt 0.079801 0.551574
vt 0.046158 0.518237
vt 0.456765 0.548146
vt 0.492155 0.512481
vt 0.456513 0.925173
vt 0.077158 0.549339
vt 0.046009 0.960998
vt 0.041494 0.513750
vt 0.455229 0.550655
vt 0.488753 0.517012
vt 0.457603 0.928671
vt 0.493268 0.964260
vt 0.079533 0.927355
vt 0.553329 0.452340
vt 0.092326 0.454160
vt 0.555943 0.457498
vt 0.089156 0.452323
vt 0.445319 0.559700
vt 0.446050 0.917162
vn 0.0000 -0.0000 1.0000
vn 1.0000 0.0000 0.0000
vn 0.0000 0.0000 -1.0000
vn -1.0000 0.0000 0.0000
vn 0.0000 1.0000 0.0000
vn 0.0000 -1.0000 0.0000
usemtl crate
s off
f 2/1/1 4/2/1 1/3/1
f 6/4/2 8/5/2 5/6/2
f 10/7/3 12/8/3 9/9/3
f 14/10/4 16/11/4 13/12/4
f 18/13/5 20/14/5 17/15/5
f 22/16/6 24/17/6 21/18/6
f 26/19/1 28/20/1 25/21/1
f 30/22/1 25/21/1 29/23/1
f 32/24/1 29/23/1 31/25/1
f 27/26/1 31/25/1 28/20/1
f 33/27/2 35/28/2 25/29/2
f 36/30/2 34/31/2 33/27/2
f 29/32/2 37/33/2 36/30/2
f 25/29/2 38/34/2 29/32/2
f 40/35/3 33/36/3 39/37/3
f 43/38/3 39/37/3 42/39/3
f 44/40/3 42/39/3 36/41/3
f 41/42/3 36/41/3 33/36/3
f 45/43/4 39/44/4 28/45/4
f 47/46/4 28/45/4 31/47/4
f 48/48/4 31/47/4 42/49/4
f 46/50/4 42/49/4 39/44/4
f 49/51/5 31/52/5 29/53/5
f 51/54/5 29/53/5 36/55/5
f 52/56/5 36/55/5 42/57/5
f 50/58/5 42/57/5 31/52/5
f 53/59/6 39/60/6 33/61/6
f 55/62/6 33/61/6 25/63/6
f 56/64/6 25/63/6 28/65/6
f 54/66/6 28/65/6 39/60/6
f 1/3/5 27/26/5 26/19/5
f 2/1/4 26/19/4 30/22/4
f 3/67/6 30/22/6 32/24/6
f 4/2/2 32/24/2 27/26/2
f 5/6/5 35/28/5 34/31/5
f 6/4/1 34/31/1 37/33/1
f 7/68/6 37/33/6 38/34/6
f 8/5/3 38/34/3 35/28/3
f 9/9/5 41/42/5 40/35/5
f 10/7/2 40/35/2 43/38/2
f 11/69/6 43/38/6 44/40/6
f 12/8/4 44/40/4 41/42/4
f 13/12/5 46/50/5 45/43/5
f 14/10/3 45/43/3 47/46/3
f 15/70/6 47/46/6 48/48/6
f 16/11/1 48/48/1 46/50/1
f 17/15/3 50/58/3 49/51/3
f 18/13/4 49/51/4 51/54/4
f 19/71/1 51/54/1 52/56/1
f 20/14/2 52/56/2 50/58/2
f 21/18/1 54/66/1 53/59/1
f 22/16/4 53/59/4 55/62/4
f 23/72/3 55/62/3 56/64/3
f 24/17/2 56/64/2 54/66/2
f 2/1/1 3/67/1 4/2/1
f 6/4/2 7/68/2 8/5/2
f 10/7/3 11/69/3 12/8/3
f 14/10/4 15/70/4 16/11/4
f 18/13/5 19/71/5 20/14/5
f 22/16/6 23/72/6 24/17/6
f 26/19/1 27/26/1 28/20/1
f 30/22/1 26/19/1 25/21/1
f 32/24/1 30/22/1 29/23/1
f 27/26/1 32/24/1 31/25/1
f 33/27/2 34/31/2 35/28/2
f 36/30/2 37/33/2 34/31/2
f 29/32/2 38/34/2 37/33/2
f 25/29/2 35/28/2 38/34/2
f 40/35/3 41/42/3 33/36/3
f 43/38/3 40/35/3 39/37/3
f 44/40/3 43/38/3 42/39/3
f 41/42/3 44/40/3 36/41/3
f 45/43/4 46/50/4 39/44/4
f 47/46/4 45/43/4 28/45/4
f 48/48/4 47/46/4 31/47/4
f 46/50/4 48/48/4 42/49/4
f 49/51/5 50/58/5 31/52/5
f 51/54/5 49/51/5 29/53/5
f 52/56/5 51/54/5 36/55/5
f 50/58/5 52/56/5 42/57/5
f 53/59/6 54/66/6 39/60/6
f 55/62/6 53/59/6 33/61/6
f 56/64/6 55/62/6 25/63/6
f 54/66/6 56/64/6 28/65/6
f 1/3/5 4/2/5 27/26/5
f 2/1/4 1/3/4 26/19/4
f 3/67/6 2/1/6 30/22/6
f 4/2/2 3/67/2 32/24/2
f 5/6/5 8/5/5 35/28/5
f 6/4/1 5/6/1 34/31/1
f 7/68/6 6/4/6 37/33/6
f 8/5/3 7/68/3 38/34/3
f 9/9/5 12/8/5 41/42/5
f 10/7/2 9/9/2 40/35/2
f 11/69/6 10/7/6 43/38/6
f 12/8/4 11/69/4 44/40/4
f 13/12/5 16/11/5 46/50/5
f 14/10/3 13/12/3 45/43/3
f 15/70/6 14/10/6 47/46/6
f 16/11/1 15/70/1 48/48/1
f 17/15/3 20/14/3 50/58/3
f 18/13/4 17/15/4 49/51/4
f 19/71/1 18/13/1 51/54/1
f 20/14/2 19/71/2 52/56/2
f 21/18/1 24/17/1 54/66/1
f 22/16/4 21/18/4 53/59/4
f 23/72/3 22/16/3 55/62/3
f 24/17/2 23/72/2 56/64/2
